<?xml version="1.0" encoding="UTF-8"?>
<svg xmlns="http://www.w3.org/2000/svg" xmlns:xlink="http://www.w3.org/1999/xlink" width="10pt" height="10pt" viewBox="0 0 10 10" version="1.1">
<g id="surface1">
<path style=" stroke:none;fill-rule:nonzero;fill:rgb(19.215686%,80%,78.823529%);fill-opacity:1;" d="M 8.660156 5.523438 C 8.660156 7.851562 6.773438 9.738281 4.445312 9.738281 C 2.117188 9.738281 0.226562 7.851562 0.226562 5.523438 C 0.226562 3.195312 2.117188 1.308594 4.445312 1.308594 C 6.773438 1.308594 8.660156 3.195312 8.660156 5.523438 Z M 8.660156 5.523438 "/>
<path style=" stroke:none;fill-rule:nonzero;fill:rgb(89.411765%,96.078431%,95.686275%);fill-opacity:1;" d="M 9.523438 1.554688 C 9.734375 1.554688 9.839844 1.8125 9.691406 1.960938 L 8.316406 3.332031 C 8.226562 3.421875 8.105469 3.472656 7.980469 3.472656 L 6.550781 3.472656 L 8.464844 1.554688 Z M 9.523438 1.554688 "/>
<path style=" stroke:none;fill-rule:nonzero;fill:rgb(89.411765%,96.078431%,95.686275%);fill-opacity:1;" d="M 8.464844 0.496094 L 8.464844 1.554688 L 6.550781 3.472656 L 6.550781 2.039062 C 6.550781 1.914062 6.597656 1.792969 6.6875 1.707031 L 8.0625 0.332031 C 8.210938 0.183594 8.464844 0.289062 8.464844 0.496094 Z M 8.464844 0.496094 "/>
<path style=" stroke:none;fill-rule:nonzero;fill:rgb(100%,85.882353%,43.529412%);fill-opacity:1;" d="M 7.246094 5.523438 C 7.246094 7.070312 5.992188 8.324219 4.445312 8.324219 C 2.894531 8.324219 1.640625 7.070312 1.640625 5.523438 C 1.640625 3.976562 2.894531 2.71875 4.445312 2.71875 C 5.992188 2.71875 7.246094 3.976562 7.246094 5.523438 Z M 7.246094 5.523438 "/>
<path style=" stroke:none;fill-rule:nonzero;fill:rgb(94.901961%,44.705882%,34.509804%);fill-opacity:1;" d="M 5.882812 5.523438 C 5.882812 6.320312 5.238281 6.964844 4.445312 6.964844 C 3.648438 6.964844 3.003906 6.320312 3.003906 5.523438 C 3.003906 4.726562 3.648438 4.082031 4.445312 4.082031 C 5.238281 4.082031 5.882812 4.726562 5.882812 5.523438 Z M 5.882812 5.523438 "/>
<path style=" stroke:none;fill-rule:nonzero;fill:rgb(12.54902%,12.156863%,18.039216%);fill-opacity:1;" d="M 5.738281 2.980469 C 5.785156 2.859375 5.726562 2.722656 5.605469 2.675781 C 5.246094 2.53125 4.867188 2.460938 4.476562 2.460938 C 2.789062 2.460938 1.414062 3.835938 1.414062 5.523438 C 1.414062 7.210938 2.789062 8.585938 4.476562 8.585938 C 6.164062 8.585938 7.539062 7.210938 7.539062 5.523438 C 7.539062 5.132812 7.464844 4.753906 7.324219 4.398438 C 7.277344 4.277344 7.140625 4.214844 7.019531 4.265625 C 6.898438 4.3125 6.839844 4.449219 6.886719 4.570312 C 7.007812 4.875 7.066406 5.195312 7.066406 5.523438 C 7.066406 6.953125 5.90625 8.113281 4.476562 8.113281 C 3.046875 8.113281 1.886719 6.953125 1.886719 5.523438 C 1.886719 4.09375 3.046875 2.933594 4.476562 2.933594 C 4.804688 2.933594 5.128906 2.992188 5.429688 3.113281 C 5.550781 3.164062 5.6875 3.101562 5.738281 2.980469 Z M 5.738281 2.980469 "/>
<path style=" stroke:none;fill-rule:nonzero;fill:rgb(12.54902%,12.156863%,18.039216%);fill-opacity:1;" d="M 8.488281 4.128906 C 8.363281 4.164062 8.289062 4.292969 8.324219 4.417969 C 8.429688 4.777344 8.480469 5.148438 8.480469 5.523438 C 8.480469 7.730469 6.683594 9.527344 4.476562 9.527344 C 2.269531 9.527344 0.472656 7.730469 0.472656 5.523438 C 0.472656 3.316406 2.269531 1.519531 4.476562 1.519531 C 4.851562 1.519531 5.222656 1.570312 5.582031 1.671875 C 5.707031 1.710938 5.835938 1.636719 5.875 1.511719 C 5.910156 1.386719 5.835938 1.257812 5.710938 1.21875 C 5.3125 1.105469 4.894531 1.046875 4.476562 1.046875 C 2.007812 1.046875 0 3.054688 0 5.523438 C 0 7.992188 2.007812 10 4.476562 10 C 6.945312 10 8.953125 7.992188 8.953125 5.523438 C 8.953125 5.105469 8.894531 4.6875 8.78125 4.289062 C 8.742188 4.164062 8.613281 4.089844 8.488281 4.128906 Z M 8.488281 4.128906 "/>
<path style=" stroke:none;fill-rule:nonzero;fill:rgb(12.54902%,12.156863%,18.039216%);fill-opacity:1;" d="M 4.476562 4.34375 C 4.511719 4.34375 4.546875 4.347656 4.582031 4.351562 C 4.710938 4.363281 4.828125 4.265625 4.839844 4.136719 C 4.851562 4.007812 4.753906 3.890625 4.625 3.878906 C 4.578125 3.875 4.527344 3.875 4.476562 3.875 C 3.566406 3.875 2.828125 4.613281 2.828125 5.523438 C 2.828125 6.433594 3.566406 7.171875 4.476562 7.171875 C 5.386719 7.171875 6.125 6.433594 6.125 5.523438 C 6.125 5.476562 6.121094 5.425781 6.117188 5.378906 C 6.105469 5.25 5.992188 5.152344 5.863281 5.164062 C 5.734375 5.175781 5.636719 5.292969 5.648438 5.421875 C 5.652344 5.453125 5.652344 5.488281 5.652344 5.523438 C 5.652344 6.171875 5.125 6.699219 4.476562 6.699219 C 3.828125 6.699219 3.296875 6.171875 3.296875 5.523438 C 3.296875 4.875 3.828125 4.34375 4.476562 4.34375 Z M 4.476562 4.34375 "/>
<path style=" stroke:none;fill-rule:nonzero;fill:rgb(12.54902%,12.156863%,18.039216%);fill-opacity:1;" d="M 9.964844 1.585938 C 9.890625 1.410156 9.71875 1.296875 9.527344 1.296875 L 8.707031 1.296875 L 8.707031 0.472656 C 8.707031 0.28125 8.589844 0.109375 8.414062 0.0390625 C 8.238281 -0.0351562 8.035156 0.00390625 7.898438 0.140625 L 6.523438 1.515625 C 6.390625 1.648438 6.316406 1.824219 6.316406 2.015625 L 6.316406 3.347656 L 4.402344 5.265625 C 4.308594 5.359375 4.308594 5.507812 4.402344 5.601562 C 4.445312 5.648438 4.507812 5.667969 4.566406 5.667969 C 4.628906 5.667969 4.6875 5.648438 4.734375 5.601562 L 6.652344 3.683594 L 7.988281 3.683594 C 8.175781 3.683594 8.351562 3.609375 8.488281 3.476562 L 9.863281 2.101562 C 9.996094 1.964844 10.039062 1.765625 9.964844 1.585938 Z M 6.789062 2.015625 C 6.789062 1.953125 6.8125 1.890625 6.859375 1.847656 L 8.234375 0.472656 L 8.234375 1.433594 L 6.789062 2.878906 Z M 8.152344 3.140625 C 8.109375 3.1875 8.046875 3.210938 7.988281 3.210938 L 7.125 3.210938 L 8.566406 1.769531 L 9.527344 1.769531 Z M 8.152344 3.140625 "/>
</g>
</svg>
