<?xml version="1.0" encoding="UTF-8"?>
<svg xmlns="http://www.w3.org/2000/svg" xmlns:xlink="http://www.w3.org/1999/xlink" width="16pt" height="16pt" viewBox="0 0 16 16" version="1.1">
<g id="surface1">
<path style=" stroke:none;fill-rule:nonzero;fill:rgb(0%,0%,0%);fill-opacity:1;" d="M 11.71875 7.035156 C 11.644531 6.839844 11.425781 6.746094 11.230469 6.824219 C 11.035156 6.898438 10.941406 7.117188 11.019531 7.3125 C 11.210938 7.796875 11.308594 8.3125 11.308594 8.835938 C 11.308594 11.121094 9.449219 12.980469 7.160156 12.980469 C 4.875 12.980469 3.015625 11.121094 3.015625 8.835938 C 3.015625 6.550781 4.875 4.691406 7.160156 4.691406 C 7.691406 4.691406 8.203125 4.789062 8.6875 4.984375 C 8.882812 5.058594 9.101562 4.964844 9.179688 4.769531 C 9.253906 4.578125 9.160156 4.359375 8.96875 4.28125 C 8.394531 4.050781 7.785156 3.9375 7.160156 3.9375 C 4.460938 3.9375 2.261719 6.136719 2.261719 8.835938 C 2.261719 11.539062 4.460938 13.738281 7.160156 13.738281 C 9.863281 13.738281 12.0625 11.539062 12.0625 8.835938 C 12.0625 8.214844 11.945312 7.609375 11.71875 7.035156 Z M 11.71875 7.035156 "/>
<path style=" stroke:none;fill-rule:nonzero;fill:rgb(0%,0%,0%);fill-opacity:1;" d="M 14.046875 6.863281 C 13.988281 6.664062 13.78125 6.546875 13.582031 6.605469 C 13.378906 6.660156 13.265625 6.871094 13.320312 7.070312 C 13.484375 7.640625 13.566406 8.238281 13.566406 8.835938 C 13.566406 12.371094 10.695312 15.242188 7.160156 15.242188 C 3.628906 15.242188 0.753906 12.371094 0.753906 8.835938 C 0.753906 5.304688 3.628906 2.429688 7.160156 2.429688 C 7.761719 2.429688 8.359375 2.511719 8.929688 2.679688 C 9.132812 2.734375 9.339844 2.621094 9.398438 2.417969 C 9.457031 2.21875 9.339844 2.007812 9.140625 1.953125 C 8.5 1.769531 7.832031 1.675781 7.160156 1.675781 C 3.210938 1.675781 0 4.886719 0 8.835938 C 0 12.785156 3.210938 16 7.160156 16 C 11.109375 16 14.324219 12.785156 14.324219 8.835938 C 14.324219 8.167969 14.230469 7.503906 14.046875 6.863281 Z M 14.046875 6.863281 "/>
<path style=" stroke:none;fill-rule:nonzero;fill:rgb(0%,0%,0%);fill-opacity:1;" d="M 9.789062 8.605469 C 9.769531 8.398438 9.589844 8.246094 9.378906 8.265625 C 9.171875 8.28125 9.019531 8.464844 9.039062 8.671875 C 9.042969 8.726562 9.046875 8.78125 9.046875 8.835938 C 9.046875 9.875 8.199219 10.71875 7.160156 10.71875 C 6.121094 10.71875 5.277344 9.875 5.277344 8.835938 C 5.277344 7.796875 6.121094 6.953125 7.160156 6.953125 C 7.21875 6.953125 7.277344 6.957031 7.332031 6.960938 C 7.539062 6.980469 7.722656 6.828125 7.742188 6.617188 C 7.761719 6.410156 7.609375 6.226562 7.398438 6.207031 C 7.324219 6.203125 7.242188 6.199219 7.160156 6.199219 C 5.707031 6.199219 4.523438 7.382812 4.523438 8.835938 C 4.523438 10.292969 5.707031 11.476562 7.160156 11.476562 C 8.617188 11.476562 9.800781 10.292969 9.800781 8.835938 C 9.800781 8.761719 9.796875 8.683594 9.789062 8.605469 Z M 9.789062 8.605469 "/>
<path style=" stroke:none;fill-rule:nonzero;fill:rgb(0%,0%,0%);fill-opacity:1;" d="M 15.941406 2.539062 C 15.824219 2.257812 15.550781 2.074219 15.246094 2.074219 L 13.929688 2.074219 L 13.929688 0.757812 C 13.929688 0.449219 13.746094 0.175781 13.460938 0.0585938 C 13.179688 -0.0585938 12.855469 0.0078125 12.640625 0.222656 L 10.441406 2.421875 C 10.226562 2.636719 10.109375 2.921875 10.109375 3.222656 L 10.109375 5.359375 L 7.039062 8.425781 C 6.894531 8.574219 6.894531 8.8125 7.039062 8.960938 C 7.113281 9.035156 7.210938 9.070312 7.308594 9.070312 C 7.40625 9.070312 7.5 9.035156 7.574219 8.960938 L 10.640625 5.894531 L 12.777344 5.894531 C 13.082031 5.894531 13.367188 5.773438 13.578125 5.5625 L 15.777344 3.363281 C 15.996094 3.144531 16.058594 2.824219 15.941406 2.539062 Z M 10.863281 3.222656 C 10.863281 3.121094 10.902344 3.027344 10.972656 2.957031 L 13.171875 0.757812 L 13.171875 2.292969 L 10.863281 4.605469 Z M 13.046875 5.027344 C 12.976562 5.097656 12.878906 5.136719 12.777344 5.136719 L 11.398438 5.136719 L 13.707031 2.828125 L 15.246094 2.828125 Z M 13.046875 5.027344 "/>
</g>
</svg>
