<?xml version="1.0" encoding="UTF-8"?>
<svg xmlns="http://www.w3.org/2000/svg" xmlns:xlink="http://www.w3.org/1999/xlink" width="100pt" height="100pt" viewBox="0 0 100 100" version="1.1">
<g id="surface1">
<path style=" stroke:none;fill-rule:nonzero;fill:rgb(0%,0%,0%);fill-opacity:1;" d="M 73.25 43.96875 C 72.769531 42.757812 71.398438 42.164062 70.1875 42.644531 C 68.976562 43.121094 68.382812 44.492188 68.859375 45.703125 C 70.058594 48.738281 70.667969 51.941406 70.667969 55.230469 C 70.667969 69.515625 59.046875 81.136719 44.761719 81.136719 C 30.472656 81.136719 18.851562 69.515625 18.851562 55.230469 C 18.851562 40.945312 30.472656 29.324219 44.761719 29.324219 C 48.058594 29.324219 51.269531 29.933594 54.300781 31.140625 C 55.511719 31.621094 56.882812 31.03125 57.367188 29.820312 C 57.847656 28.609375 57.257812 27.238281 56.046875 26.757812 C 52.457031 25.328125 48.660156 24.605469 44.761719 24.605469 C 27.871094 24.605469 14.132812 38.34375 14.132812 55.230469 C 14.132812 72.117188 27.871094 85.855469 44.761719 85.855469 C 61.648438 85.855469 75.386719 72.117188 75.386719 55.230469 C 75.386719 51.34375 74.667969 47.554688 73.25 43.96875 Z M 73.25 43.96875 "/>
<path style=" stroke:none;fill-rule:nonzero;fill:rgb(0%,0%,0%);fill-opacity:1;" d="M 87.792969 42.890625 C 87.4375 41.640625 86.128906 40.914062 84.875 41.273438 C 83.625 41.632812 82.898438 42.9375 83.257812 44.191406 C 84.28125 47.765625 84.800781 51.480469 84.800781 55.230469 C 84.800781 77.308594 66.835938 95.269531 44.761719 95.269531 C 22.679688 95.269531 4.71875 77.308594 4.71875 55.230469 C 4.71875 33.148438 22.679688 15.1875 44.761719 15.1875 C 48.519531 15.1875 52.238281 15.710938 55.820312 16.738281 C 57.070312 17.097656 58.378906 16.371094 58.738281 15.121094 C 59.097656 13.867188 58.371094 12.5625 57.121094 12.203125 C 53.117188 11.050781 48.960938 10.46875 44.761719 10.46875 C 20.078125 10.46875 0 30.546875 0 55.230469 C 0 79.910156 20.078125 99.988281 44.761719 99.988281 C 69.4375 99.988281 89.519531 79.910156 89.519531 55.230469 C 89.515625 51.039062 88.9375 46.890625 87.792969 42.890625 Z M 87.792969 42.890625 "/>
<path style=" stroke:none;fill-rule:nonzero;fill:rgb(0%,0%,0%);fill-opacity:1;" d="M 61.1875 53.789062 C 61.070312 52.492188 59.925781 51.539062 58.628906 51.648438 C 57.328125 51.765625 56.371094 52.910156 56.488281 54.207031 C 56.515625 54.542969 56.53125 54.886719 56.53125 55.230469 C 56.53125 61.722656 51.25 67.003906 44.761719 67.003906 C 38.265625 67.003906 32.984375 61.722656 32.984375 55.230469 C 32.984375 48.738281 38.265625 43.453125 44.761719 43.453125 C 45.121094 43.453125 45.476562 43.46875 45.816406 43.5 C 47.113281 43.621094 48.261719 42.667969 48.382812 41.367188 C 48.5 40.070312 47.546875 38.921875 46.25 38.800781 C 45.769531 38.757812 45.265625 38.734375 44.761719 38.734375 C 35.664062 38.734375 28.265625 46.132812 28.265625 55.230469 C 28.265625 64.324219 35.664062 71.71875 44.761719 71.71875 C 53.851562 71.71875 61.25 64.324219 61.25 55.230469 C 61.25 54.75 61.230469 54.265625 61.1875 53.789062 Z M 61.1875 53.789062 "/>
<path style=" stroke:none;fill-rule:nonzero;fill:rgb(0%,0%,0%);fill-opacity:1;" d="M 99.636719 15.871094 C 98.90625 14.101562 97.195312 12.957031 95.277344 12.957031 L 87.050781 12.957031 L 87.050781 4.730469 C 87.050781 2.816406 85.90625 1.105469 84.136719 0.371094 C 82.367188 -0.363281 80.351562 0.0390625 78.996094 1.394531 L 65.25 15.140625 C 63.914062 16.476562 63.179688 18.253906 63.179688 20.144531 L 63.179688 33.496094 L 44.003906 52.667969 C 43.082031 53.589844 43.082031 55.082031 44.003906 56.003906 C 44.464844 56.464844 45.070312 56.695312 45.671875 56.695312 C 46.277344 56.695312 46.882812 56.464844 47.339844 56.003906 L 66.515625 36.832031 L 79.867188 36.832031 C 81.757812 36.832031 83.535156 36.09375 84.871094 34.757812 L 98.613281 21.011719 C 99.96875 19.660156 100.371094 17.640625 99.636719 15.871094 Z M 67.898438 20.144531 C 67.898438 19.515625 68.144531 18.921875 68.585938 18.476562 L 82.332031 4.734375 L 82.332031 14.339844 L 67.898438 28.777344 Z M 81.53125 31.421875 C 81.09375 31.859375 80.488281 32.113281 79.867188 32.113281 L 71.234375 32.113281 L 85.667969 17.675781 L 95.277344 17.679688 Z M 81.53125 31.421875 "/>
</g>
</svg>
